<svg width="49" height="50" viewBox="0 0 49 50" fill="none" xmlns="http://www.w3.org/2000/svg">
<rect x="0.5" y="1" width="48" height="48" rx="11.5" stroke="white"/>
<path fill-rule="evenodd" clip-rule="evenodd" d="M18.2373 14.7373C18.3123 14.6621 18.4014 14.6024 18.4995 14.5617C18.5976 14.521 18.7028 14.5 18.809 14.5C18.9153 14.5 19.0205 14.521 19.1186 14.5617C19.2167 14.6024 19.3058 14.6621 19.3808 14.7373L29.072 24.4284C29.1472 24.5035 29.2069 24.5926 29.2476 24.6907C29.2883 24.7888 29.3093 24.894 29.3093 25.0002C29.3093 25.1064 29.2883 25.2116 29.2476 25.3097C29.2069 25.4079 29.1472 25.497 29.072 25.572L19.3808 35.2632C19.2292 35.4148 19.0235 35.5 18.809 35.5C18.5946 35.5 18.3889 35.4148 18.2373 35.2632C18.0856 35.1115 18.0004 34.9058 18.0004 34.6914C18.0004 34.4769 18.0856 34.2712 18.2373 34.1196L27.3583 25.0002L18.2373 15.8808C18.1621 15.8058 18.1024 15.7167 18.0617 15.6186C18.021 15.5205 18 15.4153 18 15.309C18 15.2028 18.021 15.0976 18.0617 14.9995C18.1024 14.9014 18.1621 14.8123 18.2373 14.7373Z" fill="white"/>
</svg>
